<svg xmlns="http://www.w3.org/2000/svg" version="1.1" xmlns:xlink="http://www.w3.org/1999/xlink" xmlns:svgjs="http://svgjs.dev/svgjs" width="100%" height="100%" viewBox="0 0 1000 600"><rect width="1000" height="600" x="0" y="0" fill="#050505"/><g><circle r="166.66666666666666" cx="433.5857950846354" cy="400.08338327150545" fill="#616161" transform="matrix(0.5918714775747758,0,0,0.5918714775747759,-13.460819560854539,63.2020463568892)"/><path d="M367.52081047370075 449.4326358800982L367.52081047370075 449.4326358800982L367.52081047370075 396.136038063775Q367.52081047370075 387.9277919829723 369.03135575940405 370.6847750423971L369.03135575940405 370.6847750423971L369.43036772166533 365.78262807747325L367.3213044925701 365.5831220963426Q365.0127352823444 374.30438355719554 362.90367205324924 381.2015903334256Q360.7946088241541 388.12729796410287 359.0845575573202 393.2289509101574L359.0845575573202 393.2289509101574L331.83774070576675 473.48735703356175L304.5909238542132 473.48735703356175L275.83356171695647 393.2289509101574Q273.92400446899194 388.6118124897058 272.1854523477108 382.854639891365Q270.41839937198245 377.09746729302424 268.8223515229375 370.28576308013584L268.8223515229375 370.28576308013584L267.62531563615374 365.5831220963426L265.51625240705863 365.78262807747325Q266.5137823127117 374.90290150058735 266.9697959838674 382.4556279291038Q267.42580965502316 390.0083543576202 267.42580965502316 396.136038063775L267.42580965502316 396.136038063775L267.42580965502316 450.14515724127904Q275.03553779243396 452.9382409771077 278.62664545278517 457.6693828153482L278.62664545278517 457.6693828153482L276.631585641479 473.48735703356175L236.4453808708823 473.48735703356175L234.3648184962344 457.6693828153482Q238.1554321377162 452.9382409771077 245.67965771178535 450.14515724127904L245.67965771178535 450.14515724127904L245.67965771178535 355.26581278644477Q237.24340479540479 352.24472221503817 233.9373056795259 347.7415872123756L233.9373056795259 347.7415872123756L235.96086634527936 331.8951121397148L282.7592693476338 331.8951121397148L312.71366737167426 414.5760908911339Q315.6207545252919 421.2737916862333 317.47331006436195 427.54397966462426Q319.325865603432 433.81416764301525 320.1238895279545 439.4288359691199L320.1238895279545 439.4288359691199L320.7224074713464 442.9344410661294L323.62949462496397 442.9344410661294Q324.3420159861448 430.5080685271364 331.03971678124424 414.5760908911339L331.03971678124424 414.5760908911339L359.5120703740287 331.8951121397148L405.48394859741336 331.8951121397148L407.59301182650853 347.7415872123756Q404.2869127106296 352.24472221503817 395.87916064869626 355.26581278644477L395.87916064869626 355.26581278644477L395.87916064869626 449.2331298989676Q403.8879007483684 452.4537264515048 407.1939998642473 456.4438460741172L407.1939998642473 456.4438460741172L405.08493663515213 473.48735703356175L358.2865336327977 473.48735703356175L356.29147382149154 456.6433520552478Q359.39806695623975 452.65323243263543 367.52081047370075 449.4326358800982ZM517.7203134106118 419.67774383718836L517.7203134106118 419.67774383718836Q517.7203134106118 439.7138445135922 510.9086091977233 451.8837093625601Q504.09690498483496 464.0820750659753 492.41155466146995 469.52573826539657Q480.72620433810505 474.99790231926505 466.10526600667515 474.99790231926505L466.10526600667515 474.99790231926505Q443.2760815944426 474.99790231926505 430.9922133276857 462.82803747029715Q418.7083450609289 450.629671766882 418.7083450609289 421.8723096296252L418.7083450609289 421.8723096296252Q418.7083450609289 396.022034645986 432.30325263225836 382.6551339102344Q445.86965934914065 369.28823317448274 469.411365122554 369.28823317448274L469.411365122554 369.28823317448274Q493.46608627601756 369.28823317448274 505.57894941609106 381.1160877700839Q517.7203134106118 392.9154415112378 517.7203134106118 419.67774383718836ZM448.5772405216277 421.38779510402225L448.5772405216277 421.38779510402225Q448.5772405216277 454.1352768638914 468.32833265355924 454.1352768638914L468.32833265355924 454.1352768638914Q478.3321325645376 454.1352768638914 483.1487769661197 446.69655385316395Q487.96542136770177 439.2293299879893 487.96542136770177 422.18581902854476L487.96542136770177 422.18581902854476Q487.96542136770177 390.23636119319804 467.8153172735091 390.23636119319804L467.8153172735091 390.23636119319804Q457.98252248921415 390.23636119319804 453.2798815054209 397.2760722416643Q448.5772405216277 404.3442841445777 448.5772405216277 421.38779510402225ZM579.2251573077377 343.6374641719742L579.2251573077377 343.6374641719742L581.2487179734911 327.79098909931344Q592.9625691513033 325.0834079268264 603.6788904234625 325.0834079268264L603.6788904234625 325.0834079268264Q614.3097091322799 325.0834079268264 621.9194372696908 325.68192587021827L621.9194372696908 325.68192587021827L621.9194372696908 448.8341179367064Q628.2181261025289 449.9456512601484 633.2342764852417 452.33972303371587L633.2342764852417 452.33972303371587L633.2342764852417 468.5852100686379Q620.8079039462486 475.08340488260677 601.9688391566286 475.08340488260677L601.9688391566286 475.08340488260677Q599.9737793453223 474.0858749769536 598.0072203884633 471.43529551336104Q596.0691622860516 468.7847160497685 595.8696563049209 466.2766408584121L595.8696563049209 466.2766408584121Q591.3665213022584 469.98175193655226 584.1558051271088 472.5468288368031Q576.916588097512 475.08340488260677 570.0193813212818 475.08340488260677L570.0193813212818 475.08340488260677Q547.8742174157828 475.08340488260677 537.8989183592518 463.1130460147694Q527.9236193027207 451.14268714693213 527.9236193027207 423.7818668775897L527.9236193027207 423.7818668775897Q527.9236193027207 392.8299389478961 543.1715764319896 380.28956299111417L543.1715764319896 380.28956299111417Q556.5954788766358 369.28823317448274 575.9190581918589 369.28823317448274L575.9190581918589 369.28823317448274Q584.3553111082394 369.28823317448274 593.162075132434 371.28329298578893L593.162075132434 371.28329298578893L593.162075132434 350.9336829104655Q583.8422957281892 348.4256077191091 579.2251573077377 343.6374641719742ZM574.3230103428139 454.1352768638914L574.3230103428139 454.1352768638914Q586.150864938415 454.1352768638914 593.162075132434 447.23807008766136L593.162075132434 447.23807008766136L593.162075132434 392.2314210045042Q584.55481708937 390.23636119319804 575.320540248467 390.23636119319804L575.320540248467 390.23636119319804Q565.9152582808805 390.23636119319804 561.6971318226902 398.44460727400076L561.6971318226902 398.44460727400076Q557.4790053644999 406.6528533548035 557.4790053644999 423.2973523519868L557.4790053644999 423.2973523519868Q557.4790053644999 439.82784793138114 561.6116292593485 446.9815623976363Q565.7157522997499 454.1352768638914 574.3230103428139 454.1352768638914Z " fill="#050505" transform="matrix(0.5918714775747758,0,0,0.5918714775747759,-13.460819560854539,63.2020463568892)"/><path d="M817.1692937500679 449.4326358800982L817.1692937500679 449.4326358800982L817.1692937500679 396.136038063775Q817.1692937500679 387.9277919829723 818.6798390357712 370.6847750423971L818.6798390357712 370.6847750423971L819.0788509980325 365.78262807747325L816.9697877689373 365.5831220963426Q814.6612185587115 374.30438355719554 812.5521553296164 381.2015903334256Q810.4430921005212 388.12729796410287 808.7330408336874 393.2289509101574L808.7330408336874 393.2289509101574L781.4862239821339 473.48735703356175L754.2394071305804 473.48735703356175L725.4820449933236 393.2289509101574Q723.5724877453591 388.6118124897058 721.833935624078 382.854639891365Q720.0668826483496 377.09746729302424 718.4708347993046 370.28576308013584L718.4708347993046 370.28576308013584L717.273798912521 365.5831220963426L715.1647356834258 365.78262807747325Q716.1622655890789 374.90290150058735 716.6182792602347 382.4556279291038Q717.0742929313903 390.0083543576202 717.0742929313903 396.136038063775L717.0742929313903 396.136038063775L717.0742929313903 450.14515724127904Q724.6840210688011 452.9382409771077 728.2751287291524 457.6693828153482L728.2751287291524 457.6693828153482L726.2800689178462 473.48735703356175L686.0938641472494 473.48735703356175L684.0133017726016 457.6693828153482Q687.8039154140833 452.9382409771077 695.3281409881525 450.14515724127904L695.3281409881525 450.14515724127904L695.3281409881525 355.26581278644477Q686.891888071772 352.24472221503817 683.5857889558931 347.7415872123756L683.5857889558931 347.7415872123756L685.6093496216465 331.8951121397148L732.407752624001 331.8951121397148L762.3621506480415 414.5760908911339Q765.2692378016591 421.2737916862333 767.1217933407291 427.54397966462426Q768.9743488797992 433.81416764301525 769.7723728043217 439.4288359691199L769.7723728043217 439.4288359691199L770.3708907477135 442.9344410661294L773.2779779013312 442.9344410661294Q773.990499262512 430.5080685271364 780.6882000576114 414.5760908911339L780.6882000576114 414.5760908911339L809.1605536503959 331.8951121397148L855.1324318737805 331.8951121397148L857.2414951028757 347.7415872123756Q853.9353959869968 352.24472221503817 845.5276439250634 355.26581278644477L845.5276439250634 355.26581278644477L845.5276439250634 449.2331298989676Q853.5363840247355 452.4537264515048 856.8424831406144 456.4438460741172L856.8424831406144 456.4438460741172L854.7334199115193 473.48735703356175L807.9350169091649 473.48735703356175L805.9399570978586 456.6433520552478Q809.0465502326069 452.65323243263543 817.1692937500679 449.4326358800982ZM967.3687966869788 419.67774383718836L967.3687966869788 419.67774383718836Q967.3687966869788 439.7138445135922 960.5570924740905 451.8837093625601Q953.7453882612022 464.0820750659753 942.0600379378371 469.52573826539657Q930.3746876144721 474.99790231926505 915.7537492830423 474.99790231926505L915.7537492830423 474.99790231926505Q892.9245648708097 474.99790231926505 880.6406966040529 462.82803747029715Q868.3568283372961 450.629671766882 868.3568283372961 421.8723096296252L868.3568283372961 421.8723096296252Q868.3568283372961 396.022034645986 881.9517359086256 382.6551339102344Q895.5181426255078 369.28823317448274 919.0598483989212 369.28823317448274L919.0598483989212 369.28823317448274Q943.1145695523846 369.28823317448274 955.2274326924583 381.1160877700839Q967.3687966869788 392.9154415112378 967.3687966869788 419.67774383718836ZM898.2257237979949 421.38779510402225L898.2257237979949 421.38779510402225Q898.2257237979949 454.1352768638914 917.9768159299264 454.1352768638914L917.9768159299264 454.1352768638914Q927.9806158409046 454.1352768638914 932.7972602424868 446.69655385316395Q937.613904644069 439.2293299879893 937.613904644069 422.18581902854476L937.613904644069 422.18581902854476Q937.613904644069 390.23636119319804 917.4638005498762 390.23636119319804L917.4638005498762 390.23636119319804Q907.6310057655812 390.23636119319804 902.9283647817881 397.2760722416643Q898.2257237979949 404.3442841445777 898.2257237979949 421.38779510402225ZM1028.8736405841048 343.6374641719742L1028.8736405841048 343.6374641719742L1030.8972012498582 327.79098909931344Q1042.6110524276705 325.0834079268264 1053.3273736998296 325.0834079268264L1053.3273736998296 325.0834079268264Q1063.958192408647 325.0834079268264 1071.5679205460578 325.68192587021827L1071.5679205460578 325.68192587021827L1071.5679205460578 448.8341179367064Q1077.866609378896 449.9456512601484 1082.882759761609 452.33972303371587L1082.882759761609 452.33972303371587L1082.882759761609 468.5852100686379Q1070.4563872226158 475.08340488260677 1051.6173224329957 475.08340488260677L1051.6173224329957 475.08340488260677Q1049.6222626216895 474.0858749769536 1047.6557036648305 471.43529551336104Q1045.7176455624187 468.7847160497685 1045.518139581288 466.2766408584121L1045.518139581288 466.2766408584121Q1041.0150045786254 469.98175193655226 1033.8042884034758 472.5468288368031Q1026.5650713738792 475.08340488260677 1019.667864597649 475.08340488260677L1019.667864597649 475.08340488260677Q997.52270069215 475.08340488260677 987.5474016356188 463.1130460147694Q977.5721025790879 451.14268714693213 977.5721025790879 423.7818668775897L977.5721025790879 423.7818668775897Q977.5721025790879 392.8299389478961 992.8200597083568 380.28956299111417L992.8200597083568 380.28956299111417Q1006.2439621530029 369.28823317448274 1025.567541468226 369.28823317448274L1025.567541468226 369.28823317448274Q1034.0037943846064 369.28823317448274 1042.8105584088012 371.28329298578893L1042.8105584088012 371.28329298578893L1042.8105584088012 350.9336829104655Q1033.4907790045563 348.4256077191091 1028.8736405841048 343.6374641719742ZM1023.971493619181 454.1352768638914L1023.971493619181 454.1352768638914Q1035.7993482147822 454.1352768638914 1042.8105584088012 447.23807008766136L1042.8105584088012 447.23807008766136L1042.8105584088012 392.2314210045042Q1034.203300365737 390.23636119319804 1024.969023524834 390.23636119319804L1024.969023524834 390.23636119319804Q1015.5637415572477 390.23636119319804 1011.3456150990573 398.44460727400076L1011.3456150990573 398.44460727400076Q1007.1274886408671 406.6528533548035 1007.1274886408671 423.2973523519868L1007.1274886408671 423.2973523519868Q1007.1274886408671 439.82784793138114 1011.2601125357157 446.9815623976363Q1015.364235576117 454.1352768638914 1023.971493619181 454.1352768638914ZM1225.7860439600286 449.4326358800982L1225.7860439600286 449.4326358800982L1225.7860439600286 396.136038063775Q1225.7860439600286 387.9277919829723 1227.2680883912844 370.6847750423971L1227.2680883912844 370.6847750423971L1227.6671003535457 365.78262807747325L1225.5580371244505 365.5831220963426Q1223.277968768672 374.30438355719554 1221.1689055395768 381.2015903334256Q1219.059842310482 388.12729796410287 1217.3497910436479 393.2289509101574L1217.3497910436479 393.2289509101574L1190.1029741920945 473.48735703356175L1162.856157340541 473.48735703356175L1134.0987952032842 393.2289509101574Q1132.1892379553196 388.6118124897058 1130.4221849795913 382.854639891365Q1128.6836328583101 377.09746729302424 1127.0875850092652 370.28576308013584L1127.0875850092652 370.28576308013584L1125.8620482680342 365.5831220963426L1123.7814858933864 365.78262807747325Q1124.7790157990394 374.90290150058735 1125.235029470195 382.4556279291038Q1125.6625422869038 390.0083543576202 1125.6625422869038 396.136038063775L1125.6625422869038 396.136038063775L1125.6625422869038 450.14515724127904Q1133.3007712787617 452.9382409771077 1136.8918789391128 457.6693828153482L1136.8918789391128 457.6693828153482L1134.8968191278068 473.48735703356175L1094.71061435721 473.48735703356175L1092.6015511281148 457.6693828153482Q1096.420665624044 452.9382409771077 1103.944891198113 450.14515724127904L1103.944891198113 450.14515724127904L1103.944891198113 355.26581278644477Q1095.5086382817326 352.24472221503817 1092.2025391658535 347.7415872123756L1092.2025391658535 347.7415872123756L1094.19759897716 331.8951121397148L1140.9960019795142 331.8951121397148L1170.9504000035547 414.5760908911339Q1173.8574871571723 421.2737916862333 1175.7100426962425 427.54397966462426Q1177.5625982353126 433.81416764301525 1178.3891230142822 439.4288359691199L1178.3891230142822 439.4288359691199L1178.987640957674 442.9344410661294L1181.8947281112917 442.9344410661294Q1182.5787486180252 430.5080685271364 1189.304950267572 414.5760908911339L1189.304950267572 414.5760908911339L1217.7488030059092 331.8951121397148L1263.749182083741 331.8951121397148L1265.8582453128363 347.7415872123756Q1262.5521461969574 352.24472221503817 1254.1158932805768 355.26581278644477L1254.1158932805768 355.26581278644477L1254.1158932805768 449.2331298989676Q1262.1531342346962 452.4537264515048 1265.459233350575 456.4438460741172L1265.459233350575 456.4438460741172L1263.3501701214798 473.48735703356175L1216.5517671191253 473.48735703356175L1214.5567073078191 456.6433520552478Q1217.6633004425676 452.65323243263543 1225.7860439600286 449.4326358800982ZM1375.957046042492 419.67774383718836L1375.957046042492 419.67774383718836Q1375.957046042492 439.7138445135922 1369.1453418296037 451.8837093625601Q1362.3336376167154 464.0820750659753 1350.6767881477977 469.52573826539657Q1338.9914378244328 474.99790231926505 1324.3704994930029 474.99790231926505L1324.3704994930029 474.99790231926505Q1301.512814226323 474.99790231926505 1289.2574468140135 462.82803747029715Q1276.9735785472567 450.629671766882 1276.9735785472567 421.8723096296252L1276.9735785472567 421.8723096296252Q1276.9735785472567 396.022034645986 1290.539985264139 382.6551339102344Q1304.1348928354682 369.28823317448274 1327.6765986088817 369.28823317448274L1327.6765986088817 369.28823317448274Q1351.7313197623453 369.28823317448274 1363.8441829024187 381.1160877700839Q1375.957046042492 392.9154415112378 1375.957046042492 419.67774383718836ZM1306.8424740079554 421.38779510402225L1306.8424740079554 421.38779510402225Q1306.8424740079554 454.1352768638914 1326.5650652854397 454.1352768638914L1326.5650652854397 454.1352768638914Q1336.5973660508653 454.1352768638914 1341.4140104524474 446.69655385316395Q1346.2021539995822 439.2293299879893 1346.2021539995822 422.18581902854476L1346.2021539995822 422.18581902854476Q1346.2021539995822 390.23636119319804 1326.0805507598368 390.23636119319804L1326.0805507598368 390.23636119319804Q1316.2477559755418 390.23636119319804 1311.5451149917485 397.2760722416643Q1306.8424740079554 404.3442841445777 1306.8424740079554 421.38779510402225ZM1386.1888527890483 386.7022552417413L1386.1888527890483 386.7022552417413L1388.1839126003547 370.8842810235277Q1399.213743271433 368.3762058321713 1408.533522675678 368.3762058321713L1408.533522675678 368.3762058321713Q1413.0366576783406 368.3762058321713 1416.7987704653751 368.5187101044075Q1420.56088325241 368.6897152310909 1423.553472969369 368.8892212122215L1423.553472969369 368.8892212122215L1423.553472969369 379.09252710433043Q1428.683626769871 374.7888980827984 1437.1768813951458 372.024315201417Q1445.698636874868 369.28823317448274 1453.536371847857 369.28823317448274L1453.536371847857 369.28823317448274Q1466.960274292503 369.28823317448274 1474.855010974386 373.33535450598964Q1482.7782485107166 377.41097669194374 1486.283853607726 386.6167526783996Q1489.7894587047354 395.82252866485544 1489.7894587047354 411.269991775255L1489.7894587047354 411.269991775255L1489.7894587047354 450.74367518467085Q1497.7981988044075 453.7362649016302 1501.1042979202866 457.6693828153482L1501.1042979202866 457.6693828153482L1499.0237355456386 473.48735703356175L1451.8263205810229 473.48735703356175L1449.8027599152697 457.6693828153482Q1452.6243445055454 453.7362649016302 1461.1460999852675 450.74367518467085L1461.1460999852675 450.74367518467085L1461.1460999852675 410.07295588847126Q1461.1460999852675 398.9291217996037 1457.5264914704694 395.22401072146357L1457.5264914704694 395.22401072146357Q1454.7334077346404 392.2314210045042 1449.4037479530082 391.57590135221795Q1444.1025890258231 390.92038169993157 1437.8894027563267 392.51642954897653Q1431.67621648683 394.14097825246876 1426.1755515785144 397.93159189395055L1426.1755515785144 397.93159189395055L1426.1755515785144 450.74367518467085Q1434.1842916781866 453.7362649016302 1437.4903907940654 457.6693828153482L1437.4903907940654 457.6693828153482L1435.4953309827592 473.48735703356175L1388.1839126003547 473.48735703356175L1386.1888527890483 457.6693828153482Q1388.981936524877 453.7362649016302 1397.5036920045993 450.74367518467085L1397.5036920045993 450.74367518467085L1397.5036920045993 393.6279628724186Q1390.207473266108 391.23389109885113 1386.1888527890483 386.7022552417413Z " fill="#616161" transform="matrix(0.5918714775747758,0,0,0.5918714775747759,-13.460819560854539,63.2020463568892)"/></g></svg>